# XSI Wavefront OBJ Export v3.0
# File Created: Mon Sep 19 23:52:40 2016
# XSI Version: 12.0.921.0
mtllib FaceVisor.mtl

o Face_visor
# Hierarchy (from self to top father)
g Face_visor

#begin 99 vertices
v -1.328848 -1.177403 1.746369
v -1.085000 -1.177403 1.746511
v -1.184387 -0.967048 1.746556
v -1.450572 -0.967048 1.746401
v -1.263509 -0.740147 1.746591
v -1.547477 -0.740147 1.746426
v -1.321012 -0.500581 1.746617
v -1.617903 -0.500581 1.746444
v -1.355913 -0.252450 1.746632
v -1.660647 -0.252450 1.746455
v -1.367613 0.000000 1.746637
v -1.674977 0.000000 1.746459
v -1.355913 0.252450 1.746632
v -1.660647 0.252450 1.746455
v -1.321012 0.500581 1.746617
v -1.617903 0.500581 1.746444
v -1.263509 0.740147 1.746591
v -1.547477 0.740147 1.746426
v -1.184387 0.967048 1.746556
v -1.450572 0.967048 1.746401
v -1.085000 1.177403 1.746511
v -1.328848 1.177403 1.746369
v -0.767211 -1.177403 1.746620
v -0.837488 -0.967048 1.746675
v -0.893436 -0.740147 1.746718
v -0.934097 -0.500581 1.746749
v -0.958775 -0.252450 1.746768
v -0.967048 0.000000 1.746775
v -0.958775 0.252450 1.746768
v -0.934097 0.500581 1.746749
v -0.893436 0.740147 1.746718
v -0.837488 0.967048 1.746675
v -0.767211 1.177403 1.746620
v -0.397138 -1.177403 1.746689
v -0.433516 -0.967048 1.746749
v -0.462477 -0.740147 1.746798
v -0.483524 -0.500581 1.746833
v -0.496298 -0.252450 1.746854
v -0.500581 0.000000 1.746861
v -0.496298 0.252450 1.746854
v -0.483524 0.500581 1.746833
v -0.462477 0.740147 1.746798
v -0.433516 0.967048 1.746749
v -0.397138 1.177403 1.746689
v -0.000000 -1.177403 1.746712
v -0.000000 -0.967048 1.746775
v -0.000000 -0.740147 1.746825
v -0.000000 -0.500581 1.746861
v -0.000000 -0.252450 1.746883
v -0.000000 0.000000 1.746891
v -0.000000 0.252450 1.746883
v -0.000000 0.500581 1.746861
v -0.000000 0.740147 1.746825
v -0.000000 0.967048 1.746775
v -0.000000 1.177403 1.746712
v 0.397138 -1.177403 1.746689
v 0.433516 -0.967048 1.746749
v 0.462477 -0.740147 1.746798
v 0.483524 -0.500581 1.746833
v 0.496298 -0.252450 1.746854
v 0.500581 0.000000 1.746861
v 0.496298 0.252450 1.746854
v 0.483524 0.500581 1.746833
v 0.462477 0.740147 1.746798
v 0.433516 0.967048 1.746749
v 0.397138 1.177403 1.746689
v 0.767211 -1.177403 1.746620
v 0.837488 -0.967048 1.746675
v 0.893436 -0.740147 1.746718
v 0.934097 -0.500581 1.746749
v 0.958775 -0.252450 1.746768
v 0.967048 0.000000 1.746775
v 0.958775 0.252450 1.746768
v 0.934097 0.500581 1.746749
v 0.893436 0.740147 1.746718
v 0.837488 0.967048 1.746675
v 0.767211 1.177403 1.746620
v 1.085000 -1.177403 1.746511
v 1.184387 -0.967048 1.746556
v 1.263509 -0.740147 1.746591
v 1.321012 -0.500581 1.746617
v 1.355913 -0.252450 1.746632
v 1.367613 0.000000 1.746637
v 1.355913 0.252450 1.746632
v 1.321012 0.500581 1.746617
v 1.263509 0.740147 1.746591
v 1.184387 0.967048 1.746556
v 1.085000 1.177403 1.746511
v 1.328848 -1.177403 1.746369
v 1.450572 -0.967048 1.746401
v 1.547477 -0.740147 1.746426
v 1.617903 -0.500581 1.746444
v 1.660647 -0.252450 1.746455
v 1.674977 0.000000 1.746459
v 1.660647 0.252450 1.746455
v 1.617903 0.500581 1.746444
v 1.547477 0.740147 1.746426
v 1.450572 0.967048 1.746401
v 1.328848 1.177403 1.746369
#end 99 vertices

#begin 320 normals
vn -0.000582 -0.000486 1.000000
vn -0.000462 -0.000430 1.000000
vn -0.000462 -0.000373 1.000000
vn -0.000582 -0.000422 1.000000
vn -0.000582 -0.000422 1.000000
vn -0.000462 -0.000373 1.000000
vn -0.000462 -0.000268 1.000000
vn -0.000582 -0.000303 1.000000
vn -0.000582 -0.000303 1.000000
vn -0.000462 -0.000268 1.000000
vn -0.000462 -0.000173 1.000000
vn -0.000582 -0.000196 1.000000
vn -0.000582 -0.000196 1.000000
vn -0.000462 -0.000173 1.000000
vn -0.000462 -0.000085 1.000000
vn -0.000582 -0.000096 1.000000
vn -0.000582 -0.000096 1.000000
vn -0.000462 -0.000085 1.000000
vn -0.000462 0.000000 1.000000
vn -0.000582 0.000000 1.000000
vn -0.000582 0.000000 1.000000
vn -0.000462 0.000000 1.000000
vn -0.000462 0.000085 1.000000
vn -0.000582 0.000096 1.000000
vn -0.000582 0.000096 1.000000
vn -0.000462 0.000085 1.000000
vn -0.000462 0.000173 1.000000
vn -0.000582 0.000196 1.000000
vn -0.000582 0.000196 1.000000
vn -0.000462 0.000173 1.000000
vn -0.000462 0.000268 1.000000
vn -0.000582 0.000303 1.000000
vn -0.000582 0.000303 1.000000
vn -0.000462 0.000268 1.000000
vn -0.000462 0.000373 1.000000
vn -0.000582 0.000422 1.000000
vn -0.000582 0.000422 1.000000
vn -0.000462 0.000373 1.000000
vn -0.000462 0.000430 1.000000
vn -0.000582 0.000486 1.000000
vn -0.000462 -0.000430 1.000000
vn -0.000264 -0.000347 1.000000
vn -0.000264 -0.000301 1.000000
vn -0.000462 -0.000373 1.000000
vn -0.000462 -0.000373 1.000000
vn -0.000264 -0.000301 1.000000
vn -0.000264 -0.000216 1.000000
vn -0.000462 -0.000268 1.000000
vn -0.000462 -0.000268 1.000000
vn -0.000264 -0.000216 1.000000
vn -0.000264 -0.000140 1.000000
vn -0.000462 -0.000173 1.000000
vn -0.000462 -0.000173 1.000000
vn -0.000264 -0.000140 1.000000
vn -0.000264 -0.000069 1.000000
vn -0.000462 -0.000085 1.000000
vn -0.000462 -0.000085 1.000000
vn -0.000264 -0.000069 1.000000
vn -0.000264 0.000000 1.000000
vn -0.000462 0.000000 1.000000
vn -0.000462 0.000000 1.000000
vn -0.000264 0.000000 1.000000
vn -0.000264 0.000069 1.000000
vn -0.000462 0.000085 1.000000
vn -0.000462 0.000085 1.000000
vn -0.000264 0.000069 1.000000
vn -0.000264 0.000140 1.000000
vn -0.000462 0.000173 1.000000
vn -0.000462 0.000173 1.000000
vn -0.000264 0.000140 1.000000
vn -0.000264 0.000216 1.000000
vn -0.000462 0.000268 1.000000
vn -0.000462 0.000268 1.000000
vn -0.000264 0.000216 1.000000
vn -0.000264 0.000301 1.000000
vn -0.000462 0.000373 1.000000
vn -0.000462 0.000373 1.000000
vn -0.000264 0.000301 1.000000
vn -0.000264 0.000347 1.000000
vn -0.000462 0.000430 1.000000
vn -0.000264 -0.000347 1.000000
vn -0.000122 -0.000309 1.000000
vn -0.000122 -0.000269 1.000000
vn -0.000264 -0.000301 1.000000
vn -0.000264 -0.000301 1.000000
vn -0.000122 -0.000269 1.000000
vn -0.000122 -0.000193 1.000000
vn -0.000264 -0.000216 1.000000
vn -0.000264 -0.000216 1.000000
vn -0.000122 -0.000193 1.000000
vn -0.000122 -0.000125 1.000000
vn -0.000264 -0.000140 1.000000
vn -0.000264 -0.000140 1.000000
vn -0.000122 -0.000125 1.000000
vn -0.000122 -0.000061 1.000000
vn -0.000264 -0.000069 1.000000
vn -0.000264 -0.000069 1.000000
vn -0.000122 -0.000061 1.000000
vn -0.000122 0.000000 1.000000
vn -0.000264 0.000000 1.000000
vn -0.000264 0.000000 1.000000
vn -0.000122 0.000000 1.000000
vn -0.000122 0.000061 1.000000
vn -0.000264 0.000069 1.000000
vn -0.000264 0.000069 1.000000
vn -0.000122 0.000061 1.000000
vn -0.000122 0.000125 1.000000
vn -0.000264 0.000140 1.000000
vn -0.000264 0.000140 1.000000
vn -0.000122 0.000125 1.000000
vn -0.000122 0.000193 1.000000
vn -0.000264 0.000216 1.000000
vn -0.000264 0.000216 1.000000
vn -0.000122 0.000193 1.000000
vn -0.000122 0.000269 1.000000
vn -0.000264 0.000301 1.000000
vn -0.000264 0.000301 1.000000
vn -0.000122 0.000269 1.000000
vn -0.000122 0.000309 1.000000
vn -0.000264 0.000347 1.000000
vn -0.000122 -0.000309 1.000000
vn 0.000000 -0.000299 1.000000
vn 0.000000 -0.000259 1.000000
vn -0.000122 -0.000269 1.000000
vn -0.000122 -0.000269 1.000000
vn 0.000000 -0.000259 1.000000
vn 0.000000 -0.000186 1.000000
vn -0.000122 -0.000193 1.000000
vn -0.000122 -0.000193 1.000000
vn 0.000000 -0.000186 1.000000
vn 0.000000 -0.000120 1.000000
vn -0.000122 -0.000125 1.000000
vn -0.000122 -0.000125 1.000000
vn 0.000000 -0.000120 1.000000
vn 0.000000 -0.000059 1.000000
vn -0.000122 -0.000061 1.000000
vn -0.000122 -0.000061 1.000000
vn 0.000000 -0.000059 1.000000
vn 0.000000 0.000000 1.000000
vn -0.000122 0.000000 1.000000
vn -0.000122 0.000000 1.000000
vn 0.000000 0.000000 1.000000
vn 0.000000 0.000059 1.000000
vn -0.000122 0.000061 1.000000
vn -0.000122 0.000061 1.000000
vn 0.000000 0.000059 1.000000
vn 0.000000 0.000120 1.000000
vn -0.000122 0.000125 1.000000
vn -0.000122 0.000125 1.000000
vn 0.000000 0.000120 1.000000
vn 0.000000 0.000186 1.000000
vn -0.000122 0.000193 1.000000
vn -0.000122 0.000193 1.000000
vn 0.000000 0.000186 1.000000
vn 0.000000 0.000259 1.000000
vn -0.000122 0.000269 1.000000
vn -0.000122 0.000269 1.000000
vn 0.000000 0.000259 1.000000
vn 0.000000 0.000299 1.000000
vn -0.000122 0.000309 1.000000
vn 0.000000 -0.000299 1.000000
vn 0.000122 -0.000309 1.000000
vn 0.000122 -0.000269 1.000000
vn 0.000000 -0.000259 1.000000
vn 0.000000 -0.000259 1.000000
vn 0.000122 -0.000269 1.000000
vn 0.000122 -0.000193 1.000000
vn 0.000000 -0.000186 1.000000
vn 0.000000 -0.000186 1.000000
vn 0.000122 -0.000193 1.000000
vn 0.000122 -0.000125 1.000000
vn 0.000000 -0.000120 1.000000
vn 0.000000 -0.000120 1.000000
vn 0.000122 -0.000125 1.000000
vn 0.000122 -0.000061 1.000000
vn 0.000000 -0.000059 1.000000
vn 0.000000 -0.000059 1.000000
vn 0.000122 -0.000061 1.000000
vn 0.000122 0.000000 1.000000
vn 0.000000 0.000000 1.000000
vn 0.000000 0.000000 1.000000
vn 0.000122 0.000000 1.000000
vn 0.000122 0.000061 1.000000
vn 0.000000 0.000059 1.000000
vn 0.000000 0.000059 1.000000
vn 0.000122 0.000061 1.000000
vn 0.000122 0.000125 1.000000
vn 0.000000 0.000120 1.000000
vn 0.000000 0.000120 1.000000
vn 0.000122 0.000125 1.000000
vn 0.000122 0.000193 1.000000
vn 0.000000 0.000186 1.000000
vn 0.000000 0.000186 1.000000
vn 0.000122 0.000193 1.000000
vn 0.000122 0.000269 1.000000
vn 0.000000 0.000259 1.000000
vn 0.000000 0.000259 1.000000
vn 0.000122 0.000269 1.000000
vn 0.000122 0.000309 1.000000
vn 0.000000 0.000299 1.000000
vn 0.000122 -0.000309 1.000000
vn 0.000264 -0.000347 1.000000
vn 0.000264 -0.000301 1.000000
vn 0.000122 -0.000269 1.000000
vn 0.000122 -0.000269 1.000000
vn 0.000264 -0.000301 1.000000
vn 0.000264 -0.000216 1.000000
vn 0.000122 -0.000193 1.000000
vn 0.000122 -0.000193 1.000000
vn 0.000264 -0.000216 1.000000
vn 0.000264 -0.000140 1.000000
vn 0.000122 -0.000125 1.000000
vn 0.000122 -0.000125 1.000000
vn 0.000264 -0.000140 1.000000
vn 0.000264 -0.000069 1.000000
vn 0.000122 -0.000061 1.000000
vn 0.000122 -0.000061 1.000000
vn 0.000264 -0.000069 1.000000
vn 0.000264 0.000000 1.000000
vn 0.000122 0.000000 1.000000
vn 0.000122 0.000000 1.000000
vn 0.000264 0.000000 1.000000
vn 0.000264 0.000069 1.000000
vn 0.000122 0.000061 1.000000
vn 0.000122 0.000061 1.000000
vn 0.000264 0.000069 1.000000
vn 0.000264 0.000140 1.000000
vn 0.000122 0.000125 1.000000
vn 0.000122 0.000125 1.000000
vn 0.000264 0.000140 1.000000
vn 0.000264 0.000216 1.000000
vn 0.000122 0.000193 1.000000
vn 0.000122 0.000193 1.000000
vn 0.000264 0.000216 1.000000
vn 0.000264 0.000301 1.000000
vn 0.000122 0.000269 1.000000
vn 0.000122 0.000269 1.000000
vn 0.000264 0.000301 1.000000
vn 0.000264 0.000347 1.000000
vn 0.000122 0.000309 1.000000
vn 0.000264 -0.000347 1.000000
vn 0.000462 -0.000430 1.000000
vn 0.000462 -0.000373 1.000000
vn 0.000264 -0.000301 1.000000
vn 0.000264 -0.000301 1.000000
vn 0.000462 -0.000373 1.000000
vn 0.000462 -0.000268 1.000000
vn 0.000264 -0.000216 1.000000
vn 0.000264 -0.000216 1.000000
vn 0.000462 -0.000268 1.000000
vn 0.000462 -0.000173 1.000000
vn 0.000264 -0.000140 1.000000
vn 0.000264 -0.000140 1.000000
vn 0.000462 -0.000173 1.000000
vn 0.000462 -0.000085 1.000000
vn 0.000264 -0.000069 1.000000
vn 0.000264 -0.000069 1.000000
vn 0.000462 -0.000085 1.000000
vn 0.000462 0.000000 1.000000
vn 0.000264 0.000000 1.000000
vn 0.000264 0.000000 1.000000
vn 0.000462 0.000000 1.000000
vn 0.000462 0.000085 1.000000
vn 0.000264 0.000069 1.000000
vn 0.000264 0.000069 1.000000
vn 0.000462 0.000085 1.000000
vn 0.000462 0.000173 1.000000
vn 0.000264 0.000140 1.000000
vn 0.000264 0.000140 1.000000
vn 0.000462 0.000173 1.000000
vn 0.000462 0.000268 1.000000
vn 0.000264 0.000216 1.000000
vn 0.000264 0.000216 1.000000
vn 0.000462 0.000268 1.000000
vn 0.000462 0.000373 1.000000
vn 0.000264 0.000301 1.000000
vn 0.000264 0.000301 1.000000
vn 0.000462 0.000373 1.000000
vn 0.000462 0.000430 1.000000
vn 0.000264 0.000347 1.000000
vn 0.000462 -0.000430 1.000000
vn 0.000582 -0.000486 1.000000
vn 0.000582 -0.000422 1.000000
vn 0.000462 -0.000373 1.000000
vn 0.000462 -0.000373 1.000000
vn 0.000582 -0.000422 1.000000
vn 0.000582 -0.000303 1.000000
vn 0.000462 -0.000268 1.000000
vn 0.000462 -0.000268 1.000000
vn 0.000582 -0.000303 1.000000
vn 0.000582 -0.000196 1.000000
vn 0.000462 -0.000173 1.000000
vn 0.000462 -0.000173 1.000000
vn 0.000582 -0.000196 1.000000
vn 0.000582 -0.000096 1.000000
vn 0.000462 -0.000085 1.000000
vn 0.000462 -0.000085 1.000000
vn 0.000582 -0.000096 1.000000
vn 0.000582 0.000000 1.000000
vn 0.000462 0.000000 1.000000
vn 0.000462 0.000000 1.000000
vn 0.000582 0.000000 1.000000
vn 0.000582 0.000096 1.000000
vn 0.000462 0.000085 1.000000
vn 0.000462 0.000085 1.000000
vn 0.000582 0.000096 1.000000
vn 0.000582 0.000196 1.000000
vn 0.000462 0.000173 1.000000
vn 0.000462 0.000173 1.000000
vn 0.000582 0.000196 1.000000
vn 0.000582 0.000303 1.000000
vn 0.000462 0.000268 1.000000
vn 0.000462 0.000268 1.000000
vn 0.000582 0.000303 1.000000
vn 0.000582 0.000422 1.000000
vn 0.000462 0.000373 1.000000
vn 0.000462 0.000373 1.000000
vn 0.000582 0.000422 1.000000
vn 0.000582 0.000486 1.000000
vn 0.000462 0.000430 1.000000
#end 320 vertex normals

#begin 80 faces
usemtl scene_material
f 1//1 2//2 3//3 4//4 
usemtl scene_material
f 4//5 3//6 5//7 6//8 
usemtl scene_material
f 6//9 5//10 7//11 8//12 
usemtl scene_material
f 8//13 7//14 9//15 10//16 
usemtl scene_material
f 10//17 9//18 11//19 12//20 
usemtl scene_material
f 12//21 11//22 13//23 14//24 
usemtl scene_material
f 14//25 13//26 15//27 16//28 
usemtl scene_material
f 16//29 15//30 17//31 18//32 
usemtl scene_material
f 18//33 17//34 19//35 20//36 
usemtl scene_material
f 20//37 19//38 21//39 22//40 
usemtl scene_material
f 2//41 23//42 24//43 3//44 
usemtl scene_material
f 3//45 24//46 25//47 5//48 
usemtl scene_material
f 5//49 25//50 26//51 7//52 
usemtl scene_material
f 7//53 26//54 27//55 9//56 
usemtl scene_material
f 9//57 27//58 28//59 11//60 
usemtl scene_material
f 11//61 28//62 29//63 13//64 
usemtl scene_material
f 13//65 29//66 30//67 15//68 
usemtl scene_material
f 15//69 30//70 31//71 17//72 
usemtl scene_material
f 17//73 31//74 32//75 19//76 
usemtl scene_material
f 19//77 32//78 33//79 21//80 
usemtl scene_material
f 23//81 34//82 35//83 24//84 
usemtl scene_material
f 24//85 35//86 36//87 25//88 
usemtl scene_material
f 25//89 36//90 37//91 26//92 
usemtl scene_material
f 26//93 37//94 38//95 27//96 
usemtl scene_material
f 27//97 38//98 39//99 28//100 
usemtl scene_material
f 28//101 39//102 40//103 29//104 
usemtl scene_material
f 29//105 40//106 41//107 30//108 
usemtl scene_material
f 30//109 41//110 42//111 31//112 
usemtl scene_material
f 31//113 42//114 43//115 32//116 
usemtl scene_material
f 32//117 43//118 44//119 33//120 
usemtl scene_material
f 34//121 45//122 46//123 35//124 
usemtl scene_material
f 35//125 46//126 47//127 36//128 
usemtl scene_material
f 36//129 47//130 48//131 37//132 
usemtl scene_material
f 37//133 48//134 49//135 38//136 
usemtl scene_material
f 38//137 49//138 50//139 39//140 
usemtl scene_material
f 39//141 50//142 51//143 40//144 
usemtl scene_material
f 40//145 51//146 52//147 41//148 
usemtl scene_material
f 41//149 52//150 53//151 42//152 
usemtl scene_material
f 42//153 53//154 54//155 43//156 
usemtl scene_material
f 43//157 54//158 55//159 44//160 
usemtl scene_material
f 45//161 56//162 57//163 46//164 
usemtl scene_material
f 46//165 57//166 58//167 47//168 
usemtl scene_material
f 47//169 58//170 59//171 48//172 
usemtl scene_material
f 48//173 59//174 60//175 49//176 
usemtl scene_material
f 49//177 60//178 61//179 50//180 
usemtl scene_material
f 50//181 61//182 62//183 51//184 
usemtl scene_material
f 51//185 62//186 63//187 52//188 
usemtl scene_material
f 52//189 63//190 64//191 53//192 
usemtl scene_material
f 53//193 64//194 65//195 54//196 
usemtl scene_material
f 54//197 65//198 66//199 55//200 
usemtl scene_material
f 56//201 67//202 68//203 57//204 
usemtl scene_material
f 57//205 68//206 69//207 58//208 
usemtl scene_material
f 58//209 69//210 70//211 59//212 
usemtl scene_material
f 59//213 70//214 71//215 60//216 
usemtl scene_material
f 60//217 71//218 72//219 61//220 
usemtl scene_material
f 61//221 72//222 73//223 62//224 
usemtl scene_material
f 62//225 73//226 74//227 63//228 
usemtl scene_material
f 63//229 74//230 75//231 64//232 
usemtl scene_material
f 64//233 75//234 76//235 65//236 
usemtl scene_material
f 65//237 76//238 77//239 66//240 
usemtl scene_material
f 67//241 78//242 79//243 68//244 
usemtl scene_material
f 68//245 79//246 80//247 69//248 
usemtl scene_material
f 69//249 80//250 81//251 70//252 
usemtl scene_material
f 70//253 81//254 82//255 71//256 
usemtl scene_material
f 71//257 82//258 83//259 72//260 
usemtl scene_material
f 72//261 83//262 84//263 73//264 
usemtl scene_material
f 73//265 84//266 85//267 74//268 
usemtl scene_material
f 74//269 85//270 86//271 75//272 
usemtl scene_material
f 75//273 86//274 87//275 76//276 
usemtl scene_material
f 76//277 87//278 88//279 77//280 
usemtl scene_material
f 78//281 89//282 90//283 79//284 
usemtl scene_material
f 79//285 90//286 91//287 80//288 
usemtl scene_material
f 80//289 91//290 92//291 81//292 
usemtl scene_material
f 81//293 92//294 93//295 82//296 
usemtl scene_material
f 82//297 93//298 94//299 83//300 
usemtl scene_material
f 83//301 94//302 95//303 84//304 
usemtl scene_material
f 84//305 95//306 96//307 85//308 
usemtl scene_material
f 85//309 96//310 97//311 86//312 
usemtl scene_material
f 86//313 97//314 98//315 87//316 
usemtl scene_material
f 87//317 98//318 99//319 88//320 
#end 80 faces
